<svg xmlns="http://www.w3.org/2000/svg" width="612" height="412" viewBox="0 0 612 412">
  <style>
    .box { fill: #3C3F41; stroke: #515658; stroke-width: 1; }
    .lbl { font-family: Consolas, monospace; font-size: 11px; fill: #BBBBBB; }
    .e   { stroke: #609350; stroke-width: 1.2; fill: none; }
    .d   { stroke: #3A5930; stroke-width: 1; fill: none; stroke-dasharray: 5,3; }
    .da  { stroke: #3A5930; stroke-width: 1; fill: none; }
    .sa  { stroke: #609350; stroke-width: 1.2; fill: none; }
  </style>
  <path class="d" d="M174.2,116.0 L174.2,146.0"/>
  <polygon points="171,146 178,146 174,152" fill="#3A5930"/>
  <path class="d" d="M359.6,178.0 L359.6,184.0 Q359.6,188.0 363.6,188.0 L480.9,188.0 Q484.9,188.0 484.9,192.0 L484.9,208.0"/>
  <polygon points="481,208 488,208 485,214" fill="#3A5930"/>
  <path class="d" d="M152.6,116.0 L152.6,122.0 Q152.6,126.0 148.6,126.0 L133.6,126.0 Q129.6,126.0 129.6,130.0 L129.6,184.0 Q129.6,188.0 133.6,188.0 L279.9,188.0 Q283.9,188.0 283.9,192.0 L283.9,208.0"/>
  <polygon points="280,208 287,208 284,214" fill="#3A5930"/>
  <path class="e" d="M301.9,116.0 L301.9,122.0 Q301.9,126.0 297.9,126.0 L211.9,126.0 Q207.9,126.0 207.9,130.0 L207.9,144.0"/>
  <polygon points="203,144 213,144 208,152" fill="#609350"/>
  <path class="e" d="M538.1,302.0 L538.1,348.0 Q538.1,352.0 534.1,352.0 L465.1,352.0 Q464.1,352.0 464.1,353.0 L464.1,354.0"/>
  <polygon points="459,354 469,354 464,362" fill="#609350"/>
  <path class="e" d="M333.6,116.0 L333.6,144.0"/>
  <polygon points="329,144 339,144 334,152" fill="#609350"/>
  <path class="e" d="M555.1,302.0 L555.1,354.0"/>
  <polygon points="550,354 560,354 555,362" fill="#609350"/>
  <path class="e" d="M278.0,240.0 L278.0,246.0 Q278.0,250.0 274.0,250.0 L78.5,250.0 Q74.5,250.0 74.5,254.0 L74.5,268.0"/>
  <polygon points="70,268 80,268 75,276" fill="#609350"/>
  <path class="e" d="M470.1,302.0 L470.1,308.0 Q470.1,312.0 466.1,312.0 L62.1,312.0 Q58.1,312.0 58.1,316.0 L58.1,354.0"/>
  <polygon points="53,354 63,354 58,362" fill="#609350"/>
  <path class="e" d="M512.6,240.0 L512.6,268.0"/>
  <polygon points="508,268 518,268 513,276" fill="#609350"/>
  <path class="e" d="M487.1,302.0 L487.1,318.0 Q487.1,322.0 483.1,322.0 L147.1,322.0 Q143.1,322.0 143.1,326.0 L143.1,354.0"/>
  <polygon points="138,354 148,354 143,362" fill="#609350"/>
  <path class="e" d="M512.6,116.0 L512.6,206.0"/>
  <polygon points="508,206 518,206 513,214" fill="#609350"/>
  <path class="e" d="M484.9,240.0 L484.9,246.0 Q484.9,250.0 480.9,250.0 L413.1,250.0 Q409.1,250.0 409.1,254.0 L409.1,268.0"/>
  <polygon points="404,268 414,268 409,276" fill="#609350"/>
  <path class="e" d="M307.6,178.0 L307.6,206.0"/>
  <polygon points="303,206 313,206 308,214" fill="#609350"/>
  <path class="e" d="M295.8,240.0 L295.8,256.0 Q295.8,260.0 291.8,260.0 L199.5,260.0 Q195.5,260.0 195.5,264.0 L195.5,268.0"/>
  <polygon points="191,268 201,268 196,276" fill="#609350"/>
  <path class="e" d="M504.1,302.0 L504.1,328.0 Q504.1,332.0 500.1,332.0 L244.1,332.0 Q240.1,332.0 240.1,336.0 L240.1,354.0"/>
  <polygon points="235,354 245,354 240,362" fill="#609350"/>
  <path class="e" d="M521.1,302.0 L521.1,338.0 Q521.1,342.0 517.1,342.0 L356.1,342.0 Q352.1,342.0 352.1,346.0 L352.1,354.0"/>
  <polygon points="347,354 357,354 352,362" fill="#609350"/>
  <path class="e" d="M476.8,50.0 L476.8,66.0 Q476.8,70.0 472.8,70.0 L167.4,70.0 Q163.4,70.0 163.4,74.0 L163.4,82.0"/>
  <polygon points="158,82 168,82 163,90" fill="#609350"/>
  <path class="e" d="M500.8,50.0 L500.8,82.0"/>
  <polygon points="496,82 506,82 501,90" fill="#609350"/>
  <path class="e" d="M464.8,50.0 L464.8,56.0 Q464.8,60.0 460.8,60.0 L79.4,60.0 Q75.4,60.0 75.4,64.0 L75.4,82.0"/>
  <polygon points="70,82 80,82 75,90" fill="#609350"/>
  <path class="e" d="M488.8,50.0 L488.8,76.0 Q488.8,80.0 484.8,80.0 L318.8,80.0 Q317.8,80.0 317.8,81.0 L317.8,82.0"/>
  <polygon points="313,82 323,82 318,90" fill="#609350"/>
  <path class="e" d="M313.5,240.0 L313.5,268.0"/>
  <polygon points="309,268 319,268 314,276" fill="#609350"/>
  <path class="e" d="M488.9,116.0 L488.9,122.0 Q488.9,126.0 484.9,126.0 L468.1,126.0 Q464.1,126.0 464.1,130.0 L464.1,144.0"/>
  <polygon points="459,144 469,144 464,152" fill="#609350"/>
  <rect class="box" x="453" y="24" width="60" height="26" rx="4" ry="4"/>
  <g transform="translate(456.8,29.0)">
<circle cx="8" cy="8" r="6.5" fill="#253627" stroke="#57965C"/>
<path fill-rule="evenodd" clip-rule="evenodd" d="M10 4.5V5.5L8.5 5.5V10.5H10V11.5L8.5 11.5H7.5L6 11.5V10.5H7.5V5.5L6 5.5V4.5H7.5H8.5H10Z" fill="#57965C"/>
  </g>
  <text class="lbl" x="475.8" y="41.0">Event</text>
  <rect class="box" x="141" y="152" width="101" height="26" rx="4" ry="4"/>
  <g transform="translate(144.6,157.0)">
<circle cx="8" cy="8" r="6.5" fill="#253627" stroke="#57965C"/>
<path fill-rule="evenodd" clip-rule="evenodd" d="M10 4.5V5.5L8.5 5.5V10.5H10V11.5L8.5 11.5H7.5L6 11.5V10.5H7.5V5.5L6 5.5V4.5H7.5H8.5H10Z" fill="#57965C"/>
  </g>
  <text class="lbl" x="163.6" y="169.0">AutoComplete</text>
  <rect class="box" x="420" y="362" width="89" height="26" rx="4" ry="4"/>
  <g transform="translate(423.6,367.0)">
<circle cx="8" cy="8" r="6.5" fill="#253627" stroke="#57965C"/>
<path fill-rule="evenodd" clip-rule="evenodd" d="M10 4.5V5.5L8.5 5.5V10.5H10V11.5L8.5 11.5H7.5L6 11.5V10.5H7.5V5.5L6 5.5V4.5H7.5H8.5H10Z" fill="#57965C"/>
  </g>
  <text class="lbl" x="442.6" y="379.0">RadioGroup</text>
  <rect class="box" x="256" y="152" width="156" height="26" rx="4" ry="4"/>
  <g transform="translate(259.6,157.0)">
<circle cx="8" cy="8" r="6.5" fill="#253627" stroke="#57965C"/>
<path fill-rule="evenodd" clip-rule="evenodd" d="M10 4.5V5.5L8.5 5.5V10.5H10V11.5L8.5 11.5H7.5L6 11.5V10.5H7.5V5.5L6 5.5V4.5H7.5H8.5H10Z" fill="#57965C"/>
  </g>
  <text class="lbl" x="278.6" y="169.0">DeferrableInteraction</text>
  <rect class="box" x="523" y="362" width="65" height="26" rx="4" ry="4"/>
  <g transform="translate(526.6,367.0)">
<circle cx="8" cy="8" r="6.5" fill="#253627" stroke="#57965C"/>
<path fill-rule="evenodd" clip-rule="evenodd" d="M10 4.5V5.5L8.5 5.5V10.5H10V11.5L8.5 11.5H7.5L6 11.5V10.5H7.5V5.5L6 5.5V4.5H7.5H8.5H10Z" fill="#57965C"/>
  </g>
  <text class="lbl" x="545.6" y="379.0">Option</text>
  <rect class="box" x="24" y="276" width="101" height="26" rx="4" ry="4"/>
  <g transform="translate(28.0,281.0)">
<circle cx="8" cy="8" r="6.5" fill="#253627" stroke="#57965C"/>
<path fill-rule="evenodd" clip-rule="evenodd" d="M10 4.5V5.5L8.5 5.5V10.5H10V11.5L8.5 11.5H7.5L6 11.5V10.5H7.5V5.5L6 5.5V4.5H7.5H8.5H10Z" fill="#57965C"/>
  </g>
  <text class="lbl" x="47.0" y="293.0">SlashCommand</text>
  <rect class="box" x="26" y="362" width="65" height="26" rx="4" ry="4"/>
  <g transform="translate(29.6,367.0)">
<circle cx="8" cy="8" r="6.5" fill="#253627" stroke="#57965C"/>
<path fill-rule="evenodd" clip-rule="evenodd" d="M10 4.5V5.5L8.5 5.5V10.5H10V11.5L8.5 11.5H7.5L6 11.5V10.5H7.5V5.5L6 5.5V4.5H7.5H8.5H10Z" fill="#57965C"/>
  </g>
  <text class="lbl" x="48.6" y="379.0">Button</text>
  <rect class="box" x="453" y="276" width="119" height="26" rx="4" ry="4"/>
  <g transform="translate(457.1,281.0)">
<circle cx="8" cy="8" r="6.5" fill="#253627" stroke="#57965C"/>
<path fill-rule="evenodd" clip-rule="evenodd" d="M10 4.5V5.5L8.5 5.5V10.5H10V11.5L8.5 11.5H7.5L6 11.5V10.5H7.5V5.5L6 5.5V4.5H7.5H8.5H10Z" fill="#57965C"/>
  </g>
  <text class="lbl" x="476.1" y="293.0">ActionComponent</text>
  <rect class="box" x="105" y="362" width="77" height="26" rx="4" ry="4"/>
  <g transform="translate(108.6,367.0)">
<circle cx="8" cy="8" r="6.5" fill="#253627" stroke="#57965C"/>
<path fill-rule="evenodd" clip-rule="evenodd" d="M10 4.5V5.5L8.5 5.5V10.5H10V11.5L8.5 11.5H7.5L6 11.5V10.5H7.5V5.5L6 5.5V4.5H7.5H8.5H10Z" fill="#57965C"/>
  </g>
  <text class="lbl" x="127.6" y="379.0">Checkbox</text>
  <rect class="box" x="457" y="214" width="83" height="26" rx="4" ry="4"/>
  <g transform="translate(461.3,219.0)">
<circle cx="8" cy="8" r="6.5" fill="#253627" stroke="#57965C"/>
<path fill-rule="evenodd" clip-rule="evenodd" d="M10 4.5V5.5L8.5 5.5V10.5H10V11.5L8.5 11.5H7.5L6 11.5V10.5H7.5V5.5L6 5.5V4.5H7.5H8.5H10Z" fill="#57965C"/>
  </g>
  <text class="lbl" x="480.3" y="231.0">Component</text>
  <rect class="box" x="379" y="276" width="60" height="26" rx="4" ry="4"/>
  <g transform="translate(383.1,281.0)">
<circle cx="8" cy="8" r="6.5" fill="#253627" stroke="#57965C"/>
<path fill-rule="evenodd" clip-rule="evenodd" d="M10 4.5V5.5L8.5 5.5V10.5H10V11.5L8.5 11.5H7.5L6 11.5V10.5H7.5V5.5L6 5.5V4.5H7.5H8.5H10Z" fill="#57965C"/>
  </g>
  <text class="lbl" x="402.1" y="293.0">Modal</text>
  <rect class="box" x="260" y="214" width="71" height="26" rx="4" ry="4"/>
  <g transform="translate(264.3,219.0)">
<circle cx="8" cy="8" r="6.5" fill="#253627" stroke="#57965C"/>
<path fill-rule="evenodd" clip-rule="evenodd" d="M10 4.5V5.5L8.5 5.5V10.5H10V11.5L8.5 11.5H7.5L6 11.5V10.5H7.5V5.5L6 5.5V4.5H7.5H8.5H10Z" fill="#57965C"/>
  </g>
  <text class="lbl" x="283.3" y="231.0">Command</text>
  <rect class="box" x="139" y="276" width="113" height="26" rx="4" ry="4"/>
  <g transform="translate(143.0,281.0)">
<circle cx="8" cy="8" r="6.5" fill="#253627" stroke="#57965C"/>
<path fill-rule="evenodd" clip-rule="evenodd" d="M10 4.5V5.5L8.5 5.5V10.5H10V11.5L8.5 11.5H7.5L6 11.5V10.5H7.5V5.5L6 5.5V4.5H7.5H8.5H10Z" fill="#57965C"/>
  </g>
  <text class="lbl" x="162.0" y="293.0">MessageCommand</text>
  <rect class="box" x="196" y="362" width="89" height="26" rx="4" ry="4"/>
  <g transform="translate(199.6,367.0)">
<circle cx="8" cy="8" r="6.5" fill="#253627" stroke="#57965C"/>
<path fill-rule="evenodd" clip-rule="evenodd" d="M10 4.5V5.5L8.5 5.5V10.5H10V11.5L8.5 11.5H7.5L6 11.5V10.5H7.5V5.5L6 5.5V4.5H7.5H8.5H10Z" fill="#57965C"/>
  </g>
  <text class="lbl" x="218.6" y="379.0">SelectMenu</text>
  <rect class="box" x="299" y="362" width="107" height="26" rx="4" ry="4"/>
  <g transform="translate(302.6,367.0)">
<circle cx="8" cy="8" r="6.5" fill="#253627" stroke="#57965C"/>
<path fill-rule="evenodd" clip-rule="evenodd" d="M10 4.5V5.5L8.5 5.5V10.5H10V11.5L8.5 11.5H7.5L6 11.5V10.5H7.5V5.5L6 5.5V4.5H7.5H8.5H10Z" fill="#57965C"/>
  </g>
  <text class="lbl" x="321.6" y="379.0">CheckboxGroup</text>
  <rect class="box" x="131" y="90" width="65" height="26" rx="4" ry="4"/>
  <g transform="translate(134.9,95.0)">
<circle cx="8" cy="8" r="6.5" fill="#253627" stroke="#57965C"/>
<path fill-rule="evenodd" clip-rule="evenodd" d="M10 4.5V5.5L8.5 5.5V10.5H10V11.5L8.5 11.5H7.5L6 11.5V10.5H7.5V5.5L6 5.5V4.5H7.5H8.5H10Z" fill="#57965C"/>
  </g>
  <text class="lbl" x="153.9" y="107.0">Typing</text>
  <rect class="box" x="465" y="90" width="71" height="26" rx="4" ry="4"/>
  <g transform="translate(469.3,95.0)">
<circle cx="8" cy="8" r="6.5" fill="#253627" stroke="#57965C"/>
<path fill-rule="evenodd" clip-rule="evenodd" d="M10 4.5V5.5L8.5 5.5V10.5H10V11.5L8.5 11.5H7.5L6 11.5V10.5H7.5V5.5L6 5.5V4.5H7.5H8.5H10Z" fill="#57965C"/>
  </g>
  <text class="lbl" x="488.3" y="107.0">Message</text>
  <rect class="box" x="34" y="90" width="83" height="26" rx="4" ry="4"/>
  <g transform="translate(37.9,95.0)">
<circle cx="8" cy="8" r="6.5" fill="#253627" stroke="#57965C"/>
<path fill-rule="evenodd" clip-rule="evenodd" d="M10 4.5V5.5L8.5 5.5V10.5H10V11.5L8.5 11.5H7.5L6 11.5V10.5H7.5V5.5L6 5.5V4.5H7.5H8.5H10Z" fill="#57965C"/>
  </g>
  <text class="lbl" x="56.9" y="107.0">Exception</text>
  <rect class="box" x="270" y="90" width="95" height="26" rx="4" ry="4"/>
  <g transform="translate(274.3,95.0)">
<circle cx="8" cy="8" r="6.5" fill="#253627" stroke="#57965C"/>
<path fill-rule="evenodd" clip-rule="evenodd" d="M10 4.5V5.5L8.5 5.5V10.5H10V11.5L8.5 11.5H7.5L6 11.5V10.5H7.5V5.5L6 5.5V4.5H7.5H8.5H10Z" fill="#57965C"/>
  </g>
  <text class="lbl" x="293.3" y="107.0">Interaction</text>
  <rect class="box" x="266" y="276" width="95" height="26" rx="4" ry="4"/>
  <g transform="translate(270.0,281.0)">
<circle cx="8" cy="8" r="6.5" fill="#253627" stroke="#57965C"/>
<path fill-rule="evenodd" clip-rule="evenodd" d="M10 4.5V5.5L8.5 5.5V10.5H10V11.5L8.5 11.5H7.5L6 11.5V10.5H7.5V5.5L6 5.5V4.5H7.5H8.5H10Z" fill="#57965C"/>
  </g>
  <text class="lbl" x="289.0" y="293.0">UserCommand</text>
  <rect class="box" x="426" y="152" width="77" height="26" rx="4" ry="4"/>
  <g transform="translate(429.6,157.0)">
<circle cx="8" cy="8" r="6.5" fill="#253627" stroke="#57965C"/>
<path fill-rule="evenodd" clip-rule="evenodd" d="M10 4.5V5.5L8.5 5.5V10.5H10V11.5L8.5 11.5H7.5L6 11.5V10.5H7.5V5.5L6 5.5V4.5H7.5H8.5H10Z" fill="#57965C"/>
  </g>
  <text class="lbl" x="448.6" y="169.0">Reaction</text>
</svg>
